<svg width="21" height="25" viewBox="0 0 21 25" fill="none" xmlns="http://www.w3.org/2000/svg">
<path d="M7.52941 19.6364L11.6622 15.4868C12.4207 14.7395 12.9339 13.8583 13.2016 12.8432C13.4581 11.8504 13.4581 10.8577 13.2016 9.86489C12.9339 8.84981 12.4235 7.9658 11.6706 7.21286C10.9176 6.45992 10.0336 5.94959 9.01856 5.68188C8.02579 5.42532 7.03303 5.42532 6.04026 5.68188C5.02519 5.94959 4.14118 6.45992 3.38824 7.21286C2.63529 7.9658 2.12497 8.84981 1.85725 9.86489C1.6007 10.8577 1.6007 11.8504 1.85725 12.8432C2.12497 13.8583 2.63808 14.7395 3.3966 15.4868L7.52941 19.6364ZM7.52941 21.9956L2.20863 16.6748C1.23817 15.7155 0.585621 14.5777 0.25098 13.2615C-0.0836601 11.9899 -0.0836601 10.7182 0.25098 9.44659C0.585621 8.13033 1.23538 6.98977 2.20026 6.02489C3.16514 5.06001 4.30571 4.40467 5.62196 4.05887C6.89359 3.73539 8.16523 3.73539 9.43686 4.05887C10.7531 4.40467 11.8937 5.06001 12.8586 6.02489C13.8234 6.98977 14.4732 8.13033 14.8078 9.44659C15.1425 10.7182 15.1425 11.9899 14.8078 13.2615C14.4732 14.5777 13.8207 15.7155 12.8502 16.6748L7.52941 21.9956ZM7.52941 13.0272C7.83059 13.0272 8.10946 12.9519 8.36601 12.8014C8.62257 12.6508 8.82614 12.4472 8.97673 12.1906C9.12732 11.9341 9.20261 11.6552 9.20261 11.354C9.20261 11.0529 9.12732 10.774 8.97673 10.5174C8.82614 10.2609 8.62257 10.0573 8.36601 9.90672C8.10946 9.75613 7.83059 9.68083 7.52941 9.68083C7.22824 9.68083 6.94937 9.75613 6.69281 9.90672C6.43625 10.0573 6.23268 10.2609 6.08209 10.5174C5.9315 10.774 5.85621 11.0529 5.85621 11.354C5.85621 11.6552 5.9315 11.9341 6.08209 12.1906C6.23268 12.4472 6.43625 12.6508 6.69281 12.8014C6.94937 12.9519 7.22824 13.0272 7.52941 13.0272ZM7.52941 14.7004C6.92706 14.7004 6.36932 14.5499 5.85621 14.2487C5.34309 13.9475 4.93595 13.5404 4.63477 13.0272C4.33359 12.5141 4.18301 11.9536 4.18301 11.3457C4.18301 10.7377 4.33359 10.18 4.63477 9.67247C4.93595 9.16493 5.34309 8.76057 5.85621 8.4594C6.36932 8.15822 6.92706 8.00763 7.52941 8.00763C8.13176 8.00763 8.6895 8.15822 9.20261 8.4594C9.71573 8.76057 10.1229 9.16493 10.4241 9.67247C10.7252 10.18 10.8758 10.7377 10.8758 11.3457C10.8758 11.9536 10.7252 12.5141 10.4241 13.0272C10.1229 13.5404 9.71573 13.9475 9.20261 14.2487C8.6895 14.5499 8.13176 14.7004 7.52941 14.7004Z" fill="#F53E32"/>
</svg>
