<svg width="15" height="15" viewBox="0 0 15 15" fill="none" xmlns="http://www.w3.org/2000/svg">
<path d="M14.0898 2.66661H2.56318V2.47994C2.50095 2.04439 2.30651 1.67883 1.97984 1.38328C1.65318 1.08772 1.25651 0.939941 0.789844 0.939941H0.0898438V2.10661H0.789844C0.945399 2.10661 1.07762 2.15327 1.18651 2.24661C1.2954 2.33994 1.3654 2.46439 1.39651 2.61994L2.32984 10.4599C2.36095 10.9266 2.53984 11.2999 2.86651 11.5799C3.19318 11.8599 3.58984 12.0155 4.05651 12.0466H11.7565V10.8333H4.05651C3.90095 10.8333 3.76873 10.7866 3.65984 10.6933C3.55095 10.5999 3.48095 10.4755 3.44984 10.3199L3.40318 9.66661H12.8298L14.0898 2.66661ZM11.8498 8.49994H3.26318L2.70318 3.83327H12.6898L11.8498 8.49994ZM3.02984 13.7733C2.99873 14.0844 3.09984 14.3566 3.33318 14.5899C3.56651 14.8233 3.84651 14.9399 4.17318 14.9399C4.49984 14.9399 4.77207 14.8233 4.98984 14.5899C5.20762 14.3566 5.32429 14.0844 5.33984 13.7733C5.3554 13.4622 5.24651 13.1899 5.01318 12.9566C4.77984 12.7233 4.49984 12.6066 4.17318 12.6066C3.84651 12.6066 3.57429 12.7233 3.35651 12.9566C3.13873 13.1899 3.02984 13.4622 3.02984 13.7733ZM8.86318 13.7733C8.83207 14.0844 8.93318 14.3566 9.16651 14.5899C9.39984 14.8233 9.67984 14.9399 10.0065 14.9399C10.3332 14.9399 10.6054 14.8233 10.8232 14.5899C11.041 14.3566 11.1576 14.0844 11.1732 13.7733C11.1887 13.4622 11.0798 13.1899 10.8465 12.9566C10.6132 12.7233 10.3332 12.6066 10.0065 12.6066C9.67984 12.6066 9.40762 12.7233 9.18984 12.9566C8.97207 13.1899 8.86318 13.4622 8.86318 13.7733Z" fill="white"/>
</svg>
